<svg width="98" height="87" viewBox="0 0 98 87" fill="none" xmlns="http://www.w3.org/2000/svg">
<path d="M22.5171 3.90005C28.5764 4.48524 34.3783 7.23202 39.8388 12.6313C50.7599 23.4298 51.955 23.645 58.5693 15.0844C72.6024 -2.81199 94.6458 -5.32814 97.5461 10.4658C99.2973 20.5329 91.628 50.339 84.5161 61.1559C77.164 72.0676 62.7747 84.84 55.7376 86.7006C47.9799 88.8455 30.1055 79.4167 18.3973 67.3265C-0.429698 47.7445 -5.92921 18.3268 7.16383 7.89698C13.9114 2.48829 11.912 3.0482 22.5171 3.90005ZM15.6982 27.4194C16.9518 39.7429 25.9344 53.3662 39.8098 63.9148C48.4534 70.3472 54.2553 73.094 57.5337 72.2584C68.0895 69.4675 81.8238 39.5576 81.4263 20.2585C81.0873 13.0677 74.8373 16.22 66.4407 28.0016C59.3345 38.1296 52.3582 42.2551 46.8747 39.6117C45.205 38.897 40.7718 34.6947 37.2153 30.6044C33.5807 26.3159 28.7567 21.1233 26.5401 19.0222C20.7612 13.5196 14.818 18.1532 15.6982 27.4194Z" fill="#FCFBF6"/>
</svg>
